# xmcd CD database file
#
# Track frame offsets:
#	150
#	16377
#	31760
#	42302
#	55230
#	73835
#	84947
#	101229
#	119247
#	132017
#
# Disc length: 1944 seconds
#
# Revision: 0
# Processed by: cddbd v1.5.1PL2 Copyright (c) Steve Scherf et al.
# Submitted via: CDex 1.51
#
DISCID=8707960a
DTITLE=Elvis Barker - Forever Or Nothing
DYEAR=1900
DGENRE=Country
TTITLE0=Forever Or Nothing
TTITLE1=The Fool In Me
TTITLE2=Got My Sights On You
TTITLE3=Tell Me
TTITLE4=Who Should I Choose
TTITLE5=The First Place I'll Be
TTITLE6=I Plead Guilty
TTITLE7=Old Joe
TTITLE8=Honky Tonkin' Memories
TTITLE9=There's No Words
EXTD=
EXTT0=
EXTT1=
EXTT2=
EXTT3=
EXTT4=
EXTT5=
EXTT6=
EXTT7=
EXTT8=
EXTT9=
PLAYORDER=
